<svg xmlns="http://www.w3.org/2000/svg" width="150" height="37" viewBox="0 0 150 37"><defs><clipPath id="l7e8a"><path d="M8.747 0h22.849v15.943H8.746z"/></clipPath><clipPath id="l7e8b"><path d="M131.57 9.55h18.124v17.916H131.57z"/></clipPath></defs><g><g><g><g><g/><g clip-path="url(#l7e8a)"><path fill="#10bf31" d="M18.09 15.943c-.633 0-1.24-.252-1.688-.702L9.446 8.264a2.4 2.4 0 0 1 0-3.388 2.383 2.383 0 0 1 3.378 0l5.266 5.284L27.52.702a2.383 2.383 0 0 1 3.377 0 2.401 2.401 0 0 1 0 3.388L19.78 15.24a2.384 2.384 0 0 1-1.689.702"/></g></g><g><path fill="#ffd469" d="M6.97 37a2.377 2.377 0 0 1-1.69-.7 2.4 2.4 0 0 1 0-3.389L16.399 21.76a2.383 2.383 0 0 1 3.377 0l6.956 6.977a2.4 2.4 0 0 1 0 3.388 2.384 2.384 0 0 1-3.378 0l-5.267-5.284L8.658 36.3a2.377 2.377 0 0 1-1.688.702"/></g><g><path fill="#6b3fb2" d="M6.55 27.861a2.377 2.377 0 0 1-1.689-.702 2.4 2.4 0 0 1 0-3.388l5.267-5.283L.699 9.031a2.401 2.401 0 0 1 0-3.388 2.382 2.382 0 0 1 3.378 0l11.117 11.151a2.4 2.4 0 0 1 0 3.388L8.238 27.16a2.376 2.376 0 0 1-1.688.702"/></g><g><path fill="#1a8dff" d="M33.79 32.06a2.377 2.377 0 0 1-1.689-.703L20.984 20.206a2.4 2.4 0 0 1 0-3.388L27.94 9.84a2.383 2.383 0 0 1 3.377 0 2.4 2.4 0 0 1 0 3.387l-5.267 5.284 9.429 9.458a2.401 2.401 0 0 1 0 3.388 2.377 2.377 0 0 1-1.689.701"/></g><g><path fill="#1a8dff" d="M59.089 19.333c-.03.295-.064.6-.103.914h-13.57c.156.491.376.957.66 1.4.284.442.632.824 1.043 1.148.411.325.876.58 1.395.767.519.187 1.091.28 1.719.28.763 0 1.527-.133 2.29-.398.764-.265 1.4-.623 1.91-1.076l2.673 2.682c-1.175.884-2.326 1.507-3.451 1.871a11.563 11.563 0 0 1-3.57.545 9.011 9.011 0 0 1-3.568-.707 9.119 9.119 0 0 1-2.88-1.915A8.935 8.935 0 0 1 41.715 22a8.726 8.726 0 0 1-.705-3.492c0-1.237.235-2.4.705-3.491a8.825 8.825 0 0 1 1.939-2.844 9.355 9.355 0 0 1 2.878-1.915 8.833 8.833 0 0 1 3.525-.707c1.195 0 2.34.22 3.437.663a9.35 9.35 0 0 1 2.908 1.841 8.658 8.658 0 0 1 1.997 2.814c.49 1.09.735 2.294.735 3.61 0 .275-.015.56-.044.854zm-4.392-2.502c-.333-1.08-.925-1.95-1.777-2.61a4.61 4.61 0 0 0-2.893-.987c-1.057 0-2.008.33-2.85.988-.841.659-1.43 1.528-1.762 2.61z"/></g><g><path fill="#1a8dff" d="M86.922 27.024h-4.23V16.858c0-1.198-.29-2.106-.867-2.725a2.799 2.799 0 0 0-2.129-.928c-.646 0-1.259.103-1.836.309-.578.206-1.141.545-1.689 1.017.176.688.264 1.463.264 2.327v10.166h-4.23V16.858c0-1.198-.289-2.106-.866-2.725-.578-.62-1.278-.928-2.1-.928-.647 0-1.215.113-1.704.338-.49.227-.999.585-1.527 1.076v12.405h-4.23V9.993h4.23l.005 1.267a6.319 6.319 0 0 1 1.867-1.237 5.397 5.397 0 0 1 2.19-.472c.824 0 1.652.187 2.486.56a6.406 6.406 0 0 1 2.19 1.62c.883-.785 1.775-1.345 2.677-1.68.902-.333 1.892-.5 2.97-.5.882 0 1.72.133 2.515.398a5.314 5.314 0 0 1 2.073 1.267c.588.58 1.058 1.316 1.411 2.21.353.894.53 1.97.53 3.226z"/></g><g><path fill="#1a8dff" d="M115.267 27.024h-4.23V16.858c0-1.198-.29-2.106-.866-2.725a2.799 2.799 0 0 0-2.13-.928c-.646 0-1.258.103-1.836.309-.578.206-1.14.545-1.689 1.017.176.688.264 1.463.264 2.327v10.166h-4.23V16.858c0-1.198-.289-2.106-.866-2.725-.578-.62-1.278-.928-2.1-.928-.646 0-1.215.113-1.704.338-.49.227-.999.585-1.527 1.076v12.405h-4.23V9.993h4.23l.005 1.267a6.319 6.319 0 0 1 1.867-1.237 5.397 5.397 0 0 1 2.19-.472c.824 0 1.652.187 2.486.56a6.406 6.406 0 0 1 2.19 1.62c.883-.785 1.775-1.345 2.677-1.68.902-.333 1.892-.5 2.97-.5.882 0 1.721.133 2.515.398a5.314 5.314 0 0 1 2.073 1.267c.588.58 1.059 1.316 1.411 2.21.353.894.53 1.97.53 3.226z"/></g><g><path fill="#1a8dff" d="M130.658 11.76l-2.261 3.595a7.92 7.92 0 0 0-1.366-1.193c-.5-.343-1.004-.515-1.513-.515-.275 0-.573.063-.896.191a2.602 2.602 0 0 0-.91.633c-.285.295-.525.683-.72 1.164-.196.482-.294 1.076-.294 1.783v9.606h-4.23V9.993h4.23v1.827c.51-.727 1.072-1.287 1.69-1.68a3.775 3.775 0 0 1 2.07-.59c.744 0 1.473.202 2.188.605a8.481 8.481 0 0 1 2.012 1.606"/></g><g><g/><g clip-path="url(#l7e8b)"><path fill="#1a8dff" d="M149.65 19.333c-.03.295-.064.6-.103.914h-13.571c.156.491.377.957.66 1.4.284.442.632.824 1.044 1.148.411.325.876.58 1.395.767.518.187 1.091.28 1.718.28.764 0 1.528-.133 2.292-.398.763-.265 1.4-.623 1.909-1.076l2.673 2.682c-1.175.884-2.326 1.507-3.452 1.871a11.56 11.56 0 0 1-3.569.545 9.011 9.011 0 0 1-3.569-.707 9.117 9.117 0 0 1-2.878-1.915A8.932 8.932 0 0 1 132.275 22a8.726 8.726 0 0 1-.705-3.492c0-1.237.235-2.4.705-3.491a8.829 8.829 0 0 1 1.938-2.844 9.355 9.355 0 0 1 2.88-1.915 8.832 8.832 0 0 1 3.524-.707c1.194 0 2.34.22 3.437.663a9.35 9.35 0 0 1 2.908 1.841 8.662 8.662 0 0 1 1.997 2.814c.49 1.09.735 2.294.735 3.61 0 .275-.015.56-.044.854zm-4.392-2.502c-.333-1.08-.925-1.95-1.777-2.61a4.609 4.609 0 0 0-2.893-.987c-1.058 0-2.008.33-2.85.988-.842.659-1.43 1.528-1.762 2.61z"/></g></g></g></g></g></svg>